<svg width="125" height="100" viewBox="0 0 125 100" fill="none" xmlns="http://www.w3.org/2000/svg">
<path d="M62.5002 0L125 37.5245V62.4657L62.5002 100L0 62.4657V37.5248L62.5002 0Z" fill="#A5B4FC"/>
<path fill-rule="evenodd" clip-rule="evenodd" d="M0 37.5245L62.5 0L125 37.5245V62.4657L62.5 100L0 62.4657V37.5245ZM62.5 84.0775L111.742 54.5055V45.4878L111.739 45.4862L62.5 75.0492L13.2606 45.4862L13.2582 45.4878V54.5055L62.5 84.0775ZM62.5 61.2615L100.254 38.594L91.0573 33.0745L62.5 50.2203L33.9427 33.0745L24.7456 38.594L62.5 61.2615ZM62.5 36.4325L79.5725 26.1823L62.5 15.9367L45.4275 26.1823L62.5 36.4325Z" fill="#4F46E5"/>
<path d="M62.5002 0L0 37.5248V62.4657L62.5 100L62.5002 0Z" fill="#A5B4FC" fill-opacity="0.3"/>
</svg>
